HIERARCHY
ROOT Hips
{
	OFFSET	0.00	0.00	0.00
	CHANNELS 6 Xposition Yposition Zposition Zrotation Xrotation Yrotation
	JOINT LeftUpLeg
	{
		OFFSET	 0.126116	-0.065224	 0.014019
		CHANNELS 3 Zrotation Xrotation Yrotation
		JOINT LeftLeg
		{
			OFFSET	 0.000000	 0.569914	 0.000000
			CHANNELS 3 Zrotation Xrotation Yrotation
			JOINT LeftFoot
			{
				OFFSET	 0.000000	 0.544423	 0.000000
				CHANNELS 3 Zrotation Xrotation Yrotation
				JOINT LeftToeBase
				{
					OFFSET	 0.000000	 0.207117	 0.000000
					CHANNELS 3 Zrotation Xrotation Yrotation
					End Site
					{
						OFFSET	 0.000000	 0.207117	 0.000000
					}
				}
			}
		}
	}
	JOINT RightUpLeg
	{
		OFFSET	-0.124023	-0.065224	 0.008373
		CHANNELS 3 Zrotation Xrotation Yrotation
		JOINT RightLeg
		{
			OFFSET	 0.000000	 0.570047	 0.000000
			CHANNELS 3 Zrotation Xrotation Yrotation
			JOINT RightFoot
			{
				OFFSET	 0.000000	 0.544354	 0.000000
				CHANNELS 3 Zrotation Xrotation Yrotation
				JOINT RightToeBase
				{
					OFFSET	 0.000000	 0.207540	 0.000000
					CHANNELS 3 Zrotation Xrotation Yrotation
					End Site
					{
						OFFSET	 0.000000	 0.207540	 0.000000
					}
				}
			}
		}
	}
	JOINT Spine
	{
		OFFSET	 0.000184	 0.117403	 0.007763
		CHANNELS 3 Zrotation Xrotation Yrotation
		JOINT Spine1
		{
			OFFSET	 0.000000	 0.137269	 0.000000
			CHANNELS 3 Zrotation Xrotation Yrotation
			JOINT Spine2
			{
				OFFSET	 0.000000	 0.156879	 0.000000
				CHANNELS 3 Zrotation Xrotation Yrotation
				JOINT LeftShoulder
				{
					OFFSET	 0.080501	 0.160143	 0.002496
					CHANNELS 3 Zrotation Xrotation Yrotation
					JOINT LeftArm
					{
						OFFSET	 0.000000	 0.164363	 0.000000
						CHANNELS 3 Zrotation Xrotation Yrotation
						JOINT LeftForeArm
						{
							OFFSET	 0.000000	 0.364576	 0.000000
							CHANNELS 3 Zrotation Xrotation Yrotation
							JOINT LeftHand
							{
								OFFSET	 0.000000	 0.360812	 0.000000
								CHANNELS 3 Zrotation Xrotation Yrotation
								JOINT LeftHandIndex1
								{
									OFFSET	 0.000000	 0.086006	 0.000000
									CHANNELS 3 Zrotation Xrotation Yrotation
									JOINT LeftHandIndex2
									{
										OFFSET	 0.000000	 0.047237	 0.000000
										CHANNELS 3 Zrotation Xrotation Yrotation
										JOINT LeftHandIndex3
										{
											OFFSET	-0.004284	 0.038165	 0.000551
											CHANNELS 3 Zrotation Xrotation Yrotation
											End Site
											{
												OFFSET	-0.004284	 0.038165	 0.000551
											}
										}
									}
								}
							}
						}
					}
				}
				JOINT Neck
				{
					OFFSET	 0.000000	 0.176489	 0.000000
					CHANNELS 3 Zrotation Xrotation Yrotation
					JOINT Head
					{
						OFFSET	 0.000000	 0.077941	 0.001747
						CHANNELS 3 Zrotation Xrotation Yrotation
						End Site
						{
							OFFSET	 0.000000	 0.077941	 0.001747
						}
					}
				}
				JOINT RightShoulder
				{
					OFFSET	-0.080363	 0.159706	-0.000306
					CHANNELS 3 Zrotation Xrotation Yrotation
					JOINT RightArm
					{
						OFFSET	 0.000000	 0.164196	 0.000000
						CHANNELS 3 Zrotation Xrotation Yrotation
						JOINT RightForeArm
						{
							OFFSET	 0.000000	 0.365611	 0.000000
							CHANNELS 3 Zrotation Xrotation Yrotation
							JOINT RightHand
							{
								OFFSET	 0.000000	 0.360648	 0.000000
								CHANNELS 3 Zrotation Xrotation Yrotation
								JOINT RightHandIndex1
								{
									OFFSET	 0.000000	 0.069977	 0.000000
									CHANNELS 3 Zrotation Xrotation Yrotation
									JOINT RightHandIndex2
									{
										OFFSET	 0.000000	 0.052305	 0.000000
										CHANNELS 3 Zrotation Xrotation Yrotation
										JOINT RightHandIndex3
										{
											OFFSET	 0.009002	 0.042196	 0.000782
											CHANNELS 3 Zrotation Xrotation Yrotation
											End Site
											{
												OFFSET	 0.009002	 0.042196	 0.000782
											}
										}
									}
								}
							}
						}
					}
				}
			}
		}
	}
}
MOTION
Frames:    5
Frame Time: 0.03333334
-0.089074	 1.267767	-0.053113	 4.333280	-3.238538	-173.249800	-161.601500	 19.920660	-26.612460	 6.772231	-23.890320	 10.391460	 10.117780	 57.669970	-12.654940	 1.149099	 26.514170	-2.654547	 165.532700	 7.228195	 46.645520	-2.531253	-30.238880	 11.113170	 17.336210	 71.599660	-14.516330	-1.557029	 31.784240	 2.831610	-5.453438	 4.710060	 36.479870	-4.619950	 6.961509	 5.513036	 3.113640	-6.452367	-3.530309	-105.121900	 2.996782	 92.753730	 40.951360	 47.393220	-9.873168	 17.405080	-0.265049	 11.635390	 3.554110	 11.747660	 35.268840	 3.304537	 50.425260	-1.765962	-7.791578	 56.497400	 7.681539	 6.452811	 30.913590	 0.060664	 4.098605	-9.143802	-2.523817	 1.588853	-7.477177	-5.573634	 109.184900	 22.351080	-97.904790	 15.080210	 31.205980	-27.718810	-50.856650	-1.274097	-12.372170	 0.129175	-9.620222	-34.358770	-3.808325	 9.128235	-0.038181	 13.245830	 30.472630	-7.098115	-8.533905	 22.323870	-1.117203
-0.075672	 1.268004	-0.048093	 3.170248	-2.475202	-176.434200	-161.249000	 17.500470	-29.783990	 6.254992	-22.256700	 9.966422	 8.719368	 57.378800	-11.950710	 1.149196	 26.515530	-2.654584	 165.854900	 6.631079	 44.060310	-2.380578	-28.733530	 11.214180	 17.408250	 71.418950	-14.989200	-1.422561	 30.100720	 2.769028	-4.235804	 5.404998	 27.244900	-3.356374	 6.154804	 4.548107	 2.609209	-5.550848	-2.720514	-105.518600	 3.301801	 92.738930	 30.119980	 50.833160	-0.635659	 20.371890	-0.269644	 14.343980	 9.475289	 7.117348	 36.406990	 3.056290	 47.955160	-1.576054	-7.428413	 54.062800	 7.110492	 6.366408	 28.971600	 0.062273	 4.081953	-8.646326	-2.171960	 1.087579	-6.900769	-3.746793	 110.505300	 21.104110	-97.806330	 17.593650	 30.200150	-28.154180	-53.771770	-1.237043	-15.130040	 5.661089	-13.990760	-32.443280	-3.299763	 7.414059	 0.260222	 12.930780	 27.532580	-6.316667	-8.532714	 18.732330	-0.883650
-0.062336	 1.268583	-0.042105	 2.411552	-1.951256	-178.831300	-160.875600	 15.513970	-32.189440	 5.655706	-20.313140	 8.872163	 6.360273	 56.673060	-9.992939	 1.149481	 26.519420	-2.654697	 166.313700	 6.410282	 41.945550	-2.266702	-27.566060	 11.115970	 17.326780	 70.990260	-14.803830	-1.354480	 29.226820	 2.738739	-2.844603	 5.871092	 17.848580	-2.598279	 5.830774	 3.937310	 2.334569	-5.152848	-2.114930	-106.038500	 3.598770	 92.731050	 32.390910	 49.425390	-1.683958	 23.039320	-0.271532	 16.808650	 10.122820	 2.548143	 34.648200	 2.521506	 42.249550	-1.195922	-6.779289	 48.223920	 5.951169	 6.164267	 24.292090	 0.052858	 4.044382	-8.321884	-1.866912	 0.685968	-6.581553	-2.273146	 111.868200	 19.901650	-97.704030	 18.978140	 30.787400	-27.757470	-55.216000	-1.173823	-17.598920	 7.451605	-16.335370	-32.288480	-2.947749	 6.221814	 0.482170	 12.742180	 25.480860	-5.794269	-8.523417	 16.329860	-0.729971
-0.048484	 1.269038	-0.035286	 2.061220	-1.626830	 179.628100	-160.340300	 13.942330	-33.757610	 4.999265	-18.124460	 7.166869	 3.234803	 55.508650	-6.981440	 1.149919	 26.525390	-2.654871	 167.027200	 6.452882	 40.404850	-2.187770	-26.741850	 10.837910	 17.159990	 70.446630	-14.132260	-1.349761	 29.165790	 2.736674	-1.424531	 6.112419	 9.041557	-1.990255	 5.615485	 3.448130	 2.152792	-5.059424	-1.740295	-106.636600	 3.867509	 92.730860	 43.213080	 42.131730	-8.891058	 25.073010	-0.264531	 18.844230	 5.911912	-0.700606	 29.667060	 1.872908	 33.849990	-0.794724	-6.205441	 39.528310	 4.579757	 5.873980	 17.348970	 0.007602	 3.991686	-8.180941	-1.626380	 0.407523	-6.516294	-1.228706	 113.177100	 18.823410	-97.606270	 20.013130	 33.475560	-27.321280	-54.865340	-1.087454	-19.588800	 4.527834	-16.965130	-33.931500	-2.769594	 5.595523	 0.609209	 12.652140	 24.396760	-5.524899	-8.516736	 15.194540	-0.657849
-0.034405	 1.269367	-0.027605	 1.747821	-1.318096	 178.108400	-159.908400	 12.210340	-35.300360	 4.233451	-15.497690	 5.322611	 0.158703	 53.993490	-3.910170	 1.150363	 26.531450	-2.655047	 167.697100	 6.640020	 38.856880	-2.131180	-26.143360	 10.538340	 16.976860	 69.995060	-13.407170	-1.344989	 29.103980	 2.734590	 0.042760	 6.053927	 0.193050	-1.655652	 5.565316	 3.082533	 2.086652	-5.054360	-1.363045	-107.242600	 4.139647	 92.733530	 51.488060	 32.140240	-12.860180	 26.604980	-0.246468	 20.624770	 0.337428	-2.013869	 24.850800	 1.333331	 25.311440	-0.527256	-5.928916	 30.682110	 3.431610	 5.582352	 10.301470	-0.073451	 3.937732	-8.038435	-1.382754	 0.126941	-6.454349	-0.170784	 114.496500	 17.733790	-97.481520	 19.416750	 37.206170	-25.958190	-50.878830	-0.924690	-21.218020	 0.314956	-17.476470	-35.217000	-2.587942	 4.961693	 0.739721	 12.567380	 23.298490	-5.256279	-8.508507	 14.044790	-0.585049
